Coordinates
version=1
nRows=12
nColumns=42
inDegrees=yes

Units are S.I. units (second, meters, Newtons, ...)
If the header above contains a line with 'inDegrees', this indicates whether rotational values are in degrees (yes) or radians (no).

endheader
time	pelvis_tilt	pelvis_list	pelvis_rotation	pelvis_tx	pelvis_ty	pelvis_tz	hip_flexion_r	hip_adduction_r	hip_rotation_r	knee_angle_r	knee_adduction_r	knee_angle_r_beta	ankle_angle_r	subtalar_angle_r	mtp_angle_r	hip_flexion_l	hip_adduction_l	hip_rotation_l	knee_angle_l	knee_adduction_l	knee_angle_l_beta	ankle_angle_l	subtalar_angle_l	mtp_angle_l	lumbar_extension	lumbar_bending	lumbar_rotation	arm_flex_r	arm_add_r	arm_rot_r	elbow_flex_r	pro_sup_r	wrist_flex_r	wrist_dev_r	arm_flex_l	arm_add_l	arm_rot_l	elbow_flex_l	pro_sup_l	wrist_flex_l	wrist_dev_l
      0.38000000	      8.10885441	     -0.49290697	     -0.24403550	     -1.39731555	      0.92034384	      0.24175533	     20.53118611	      0.68258489	     -9.88297179	     18.99182161	      1.18344872	      0.33146982	      8.37556800	      5.46750091	     -7.96279039	    -29.53888536	     -3.37140700	    -18.84709820	     21.88872866	      0.37342254	      0.38203038	     15.80421497	     31.00226968	     -7.96279039	    -22.07866890	      4.28674597	     -6.51404062	     -5.82929087	     -7.22842079	      3.12269712	     29.44074999	     90.00000001	      0.00000000	      0.00000000	      6.05492451	    -15.04982097	     -8.41472541	     52.81239176	     90.00000001	      0.00000000	      0.00000000
      0.39000000	      8.58483601	     -0.99016796	     -0.47708764	     -1.38019166	      0.92255001	      0.24379144	     19.81875324	      1.34274162	     -9.61456747	     20.85330424	      1.17036390	      0.36395882	      8.61348270	      5.02408930	     -7.95676945	    -29.43270901	     -4.06013375	    -18.77937034	     24.68984307	     -0.17169619	      0.43091905	     13.42961375	     29.80360220	     -7.95676945	    -22.55250979	      4.74324539	     -6.12427561	     -5.49376308	     -7.37124904	      3.08058689	     29.37408039	     90.00000001	      0.00000000	      0.00000000	      5.49515091	    -14.71443460	     -8.50918012	     52.35283180	     90.00000001	      0.00000000	      0.00000000
      0.40000000	      9.14744665	     -1.56138112	     -0.72297675	     -1.36317534	      0.92539769	      0.24580038	     18.76509605	      2.11104917	     -9.24864585	     22.25584648	      1.15508303	      0.38843780	      8.90076998	      4.73179077	     -7.95051581	    -29.24803966	     -4.83984378	    -18.57513711	     27.69438156	     -0.59035816	      0.48335814	     11.02384694	     28.06274553	     -7.95051581	    -23.15802593	      5.26691103	     -5.67058921	     -5.11650873	     -7.57122759	      3.01852519	     29.36543972	     90.00000001	      0.00000000	      0.00000000	      4.92894977	    -14.31717163	     -8.54412814	     51.82367710	     90.00000001	      0.00000000	      0.00000000
      0.41000000	      9.74437417	     -2.17333244	     -0.99963921	     -1.34643551	      0.92895062	      0.24808502	     17.31142551	      2.98879269	     -8.31474377	     22.94368976	      1.33999736	      0.40044293	      8.97986770	      3.83305475	     -7.91559374	    -29.02151260	     -5.63899589	    -17.30907856	     30.71620845	     -0.41585236	      0.53609897	      8.61176297	     24.28360893	     -7.91559374	    -23.84512632	      5.77410613	     -5.14165495	     -4.68287634	     -7.71495159	      2.88069413	     29.37259706	     90.00000001	      0.00000000	      0.00000000	      4.38768498	    -13.92477372	     -8.52075122	     51.18840652	     90.00000001	      0.00000000	      0.00000000
      0.42000000	     10.27824810	     -2.72171554	     -1.29951553	     -1.32996027	      0.93259607	      0.25029260	     15.82324668	      3.76025477	     -7.70195933	     23.43491392	      1.46201934	      0.40901641	      9.45087043	      3.67432187	     -7.89725007	    -28.38977673	     -6.41955657	    -17.01035072	     34.12345323	     -0.69550394	      0.59556661	      6.76441952	     21.76778764	     -7.89725007	    -24.48454791	      6.18478681	     -4.56562888	     -4.27561225	     -7.90332005	      2.82560575	     29.46259443	     90.00000001	      0.00000000	      0.00000000	      3.87189195	    -13.53975096	     -8.40592126	     50.46789798	     90.00000001	      0.00000000	      0.00000000
      0.43000000	     10.65882420	     -2.96084999	     -1.54711313	     -1.31400328	      0.93630154	      0.25208826	     14.40696253	      4.05220891	     -7.17069477	     23.72149615	      1.77101591	      0.41401821	     10.28886710	      3.89391550	     -7.88955774	    -27.24680380	     -6.87123659	    -17.02134853	     37.72561504	     -1.41292451	      0.65843619	      5.30235380	     19.90528504	     -7.88955774	    -24.98171028	      6.29811380	     -4.17381152	     -3.82117284	     -8.07327379	      2.80306700	     29.62569700	     90.00000001	      0.00000000	      0.00000000	      3.35056907	    -13.20387975	     -8.21726344	     49.68343023	     90.00000001	      0.00000000	      0.00000000
      0.44000000	     10.78482469	     -3.31297103	     -1.81029719	     -1.29846471	      0.93987603	      0.25407901	     13.10941985	      4.56267267	     -6.64175957	     23.61505641	      1.93225049	      0.41216049	     11.04642854	      4.20842669	     -7.88106368	    -25.64396588	     -7.49071961	    -17.10347390	     41.41535139	     -2.13248847	      0.72283424	      4.18382822	     17.59721254	     -7.88106368	    -25.23456901	      6.49945253	     -3.64380675	     -3.39737888	     -8.25275169	      2.77981408	     29.79741535	     90.00000001	      0.00000000	      0.00000000	      2.88535994	    -12.82767625	     -7.91949718	     48.82802306	     90.00000001	      0.00000000	      0.00000000
      0.45000000	     10.90506140	     -3.54328013	     -2.06466248	     -1.28324098	      0.94360936	      0.25611968	     11.69162231	      4.91314831	     -6.18882548	     23.23099213	      2.11649941	      0.40545730	     11.77257740	      4.59496790	     -7.87323432	    -23.93299853	     -8.01831944	    -17.23078729	     44.92363883	     -2.84274560	      0.78406541	      3.60197667	     15.43574981	     -7.87323432	    -25.49090952	      6.53006857	     -3.15816244	     -2.97378676	     -8.39241419	      2.77109329	     30.04182421	     90.00000001	      0.00000000	      0.00000000	      2.45717979	    -12.52985555	     -7.57289063	     47.89260420	     90.00000001	      0.00000000	      0.00000000
      0.46000000	     10.81060497	     -3.84461740	     -2.39893350	     -1.26836587	      0.94716230	      0.25841654	     10.44492056	      5.43855977	     -5.77211980	     22.65027562	      2.12000248	      0.39532189	     12.24888426	      4.76298838	     -7.85843107	    -21.93181617	     -8.66564858	    -17.22935110	     48.27738710	     -3.27396385	      0.84259936	      3.28140457	     12.78086116	     -7.85843107	    -25.53281121	      6.59033086	     -2.51533913	     -2.56985617	     -8.56063367	      2.76357114	     30.29680211	     90.00000001	      0.00000000	      0.00000000	      2.04303657	    -12.24373077	     -7.09697007	     46.91838865	     90.00000001	      0.00000000	      0.00000000
      0.47000000	     10.90841798	     -3.88402056	     -2.61518514	     -1.25356717	      0.95111830	      0.26025202	      8.82094413	      5.54814661	     -5.39946367	     21.75192680	      2.27242180	      0.37964274	     12.92658193	      5.28424197	     -7.84596297	    -20.06851813	     -8.94866003	    -17.49884730	     51.12399229	     -4.14532196	      0.89228199	      3.36984783	     10.89995909	     -7.84596297	    -25.73819346	      6.40861243	     -2.07213818	     -2.17387038	     -8.71929358	      2.81731834	     30.63787467	     90.00000001	      0.00000000	      0.00000000	      1.65334440	    -12.00182790	     -6.57729780	     45.93362517	     90.00000001	      0.00000000	      0.00000000
      0.48000000	     11.10339725	     -3.71508002	     -2.77129411	     -1.23894259	      0.95528902	      0.26179856	      7.03766665	      5.33771730	     -5.21603952	     20.70601219	      2.48258937	      0.36138809	     13.54855247	      5.94431170	     -7.83998526	    -18.27284697	     -8.92874358	    -17.91299742	     53.46107207	     -5.24255352	      0.93307173	      3.99931189	      9.58014354	     -7.83998526	    -26.02875177	      6.02438617	     -1.78465274	     -1.74229293	     -8.84973975	      2.87613093	     31.03528633	     90.00000001	      0.00000000	      0.00000000	      1.26420478	    -11.79063241	     -6.11996356	     44.97234741	     90.00000001	      0.00000000	      0.00000000
      0.49000000	     11.15502986	     -3.59011131	     -2.99648879	     -1.22437995	      0.95922033	      0.26359102	      5.35263091	      5.24219597	     -4.99383687	     19.50257546	      2.57760037	      0.34038415	     14.09446965	      6.68088414	     -7.83342931	    -16.32230993	     -9.00362817	    -18.53666071	     55.47711214	     -6.25719862	      0.96825827	      4.67940662	      8.25795017	     -7.83342931	    -26.12998268	      5.64025371	     -1.35081449	     -1.39967324	     -9.01346968	      3.00216140	     31.41894729	     90.00000001	      0.00000000	      0.00000000	      0.88120485	    -11.60138296	     -5.49770066	     43.99154912	     90.00000001	      0.00000000	      0.00000000
